<?xml version="1.0" standalone="no"?>
<!DOCTYPE svg PUBLIC "-//W3C//DTD SVG 1.1//EN" "http://www.w3.org/Graphics/SVG/1.1/DTD/svg11.dtd">
<svg xmlns="http://www.w3.org/2000/svg">
<defs >
<font id="MarkaziText" horiz-adv-x="1032" ><font-face
    font-family="Markazi Text SemiBold"
    units-per-em="2048"
    panose-1="0 0 0 0 0 0 0 0 0 0"
    ascent="1718"
    descent="-740"
    alphabetic="0" />
<glyph unicode=" " horiz-adv-x="313" />
<glyph unicode="!" horiz-adv-x="427" d="M159 333L98 950V989Q148 996 208 997T329 995V950L268 333H159ZM213 -15Q155 -15 121 17T87 106Q87 161 121 193T213 226Q271 226 305 194T340 105Q340 50 306 18T213 -15Z" />
<glyph unicode="&quot;" horiz-adv-x="617" d="M126 696L77 1106V1142Q160 1153 267 1147V1106L215 696H126ZM400 696L351 1106V1142Q434 1153 541 1147V1106L489 696H400Z" />
<glyph unicode="#" horiz-adv-x="1033" d="M552 0L709 977H833L676 0H552ZM60 225V337H933V225H60ZM201 0L358 977H482L325 0H201ZM100 640V752H973V640H100Z" />
<glyph unicode="$" horiz-adv-x="837" d="M385 -7Q201 -7 86 78Q64 229 75 334H164L274 93L195 158Q299 99 407 99Q488 99 531 133T575 231Q575 283 542 316T434 374L329 407Q75 486 75 691Q75 825 171 904T431 984Q502 984 571 968T697 923Q715 797 709 695H615L524
891L621 819Q510 877 408 877Q261 877 261 754Q261 699 296 664T411 604L517 572Q764 497 764 294Q764 155 661 74T385 -7ZM320 -166L410 1145H496L406 -166H320Z" />
<glyph unicode="%" horiz-adv-x="1340" d="M337 475Q216 475 146 546T75 739Q75 860 146 931T338 1003Q457 1003 528 932T599 740Q599 618 528 547T337 475ZM346 553Q438 553 438 723Q438 821 410 873T328 926Q235 926 235 755Q235 657 264 605T346 553ZM1003
-13Q883 -13 812 58T741 251Q741 372 812 443T1004 515Q1124 515 1194 444T1265 252Q1265 130 1195 59T1003 -13ZM1013 65Q1105 65 1105 235Q1105 333 1076 385T994 438Q902 438 902 267Q902 169 930 117T1013 65ZM285 -5L913 990Q982 1001 1059 995L431 0Q362
-11 285 -5Z" />
<glyph unicode="&amp;" horiz-adv-x="1056" d="M792 0L263 519Q145 635 145 760Q145 874 231 941T464 1008Q598 1008 678 951T758 796Q758 700 678 622T450 492L374 546Q555 627 555 771Q555 831 526 864T443 897Q348 897 348 789Q348 737 371 693T453 592L991
62L899 105L1023 83L1017 0H792ZM388 -18Q234 -18 143 48T51 227Q51 329 128 410T352 541L428 487Q346 451 305 396T264 262Q264 182 306 139T426 96Q497 96 557 133T681 255L755 174Q685 74 597 28T388 -18ZM751 160L660 221L836 468L842 422L718 451L725 533H1041L1035
453Q1012 440 983 431T924 415L995 463L751 160Z" />
<glyph unicode="&apos;" horiz-adv-x="343" d="M126 696L77 1106V1142Q160 1153 267 1147V1106L215 696H126Z" />
<glyph unicode="(" horiz-adv-x="472" d="M475 1221Q366 1083 318 921T269 531Q269 57 475 -202L413 -242Q311 -193 236 -85T119 175T77 509Q77 690 118 842T235 1103T413 1261L475 1221Z" />
<glyph unicode=")" horiz-adv-x="472" d="M-3 -202Q106 -64 154 98T203 488Q203 962 -3 1221L59 1261Q161 1212 236 1104T353 844T395 510Q395 329 354 177T237 -84T59 -242L-3 -202Z" />
<glyph unicode="*" horiz-adv-x="841" d="M444 442L433 477L390 787L450 805L577 518L585 491Q525 459 444 442ZM397 1142L408 1108L451 798L391 780L264 1068L256 1095Q314 1127 397 1142ZM735 638L700 646L410 764L424 824L736 791L764 785Q761 713 735 638ZM105
948L141 940L431 822L417 761L105 795L77 801Q80 871 105 948ZM713 988L689 962L440 769L395 812L579 1065L598 1087Q630 1067 659 1042T713 988ZM129 598L153 624L400 816L446 773L262 519L243 498Q177 539 129 598Z" />
<glyph unicode="+" horiz-adv-x="798" d="M77 427V550H721V427H77ZM461 158H337V819H461V158Z" />
<glyph unicode="," horiz-adv-x="391" d="M74 -255L23 -202Q65 -171 100 -136T153 -73Q171 -44 181 -14T196 52L229 14H75Q64 129 97 216Q140 230 186 230Q324 230 324 90Q324 -5 255 -99T74 -255Z" />
<glyph unicode="-" horiz-adv-x="606" d="M77 383V532H529V383H77Z" />
<glyph unicode="." horiz-adv-x="391" d="M195 -15Q137 -15 102 18T67 109Q67 166 102 199T195 233Q254 233 289 200T324 109Q324 51 289 18T195 -15Z" />
<glyph unicode="/" horiz-adv-x="633" d="M26 -200L454 1225Q524 1236 607 1230L179 -195Q108 -206 26 -200Z" />
<glyph unicode="0" horiz-adv-x="939" d="M469 -18Q279 -18 167 119T55 487Q55 643 105 757T249 933T471 995Q661 995 773 859T885 490Q885 334 834 221T690 45T469 -18ZM485 98Q647 98 647 453Q647 658 598 768T454 879Q292 879 292 524Q292 319 342 209T485 98Z" />
<glyph unicode="1" horiz-adv-x="677" d="M255 15V882L467 977V15H255ZM284 802L72 824L69 892Q224 964 405 989H467V847L284 802ZM83 0L89 78Q130 88 181 97T286 114L255 25V175H467V25L440 107L633 80L626 0H83Z" />
<glyph unicode="2" horiz-adv-x="809" d="M27 0L35 99L194 267Q314 393 379 473T469 610T494 725Q494 803 458 842T351 881Q262 881 183 823L64 660Q62 722 67 789T85 901Q155 946 242 970T417 994Q563 994 643 927T723 738Q723 664 688 587T569 410T335 164L168
0H27ZM27 0L171 109H735L733 0H27ZM733 0L567 74L667 268H757Q763 141 733 0ZM64 660L85 869L293 909L166 660H64Z" />
<glyph unicode="3" horiz-adv-x="806" d="M382 -17Q187 -17 69 85Q56 133 51 195T48 326L166 165Q246 97 370 97Q522 97 522 262Q522 351 481 399T364 447H289L298 566L373 559Q556 559 653 488T751 283Q751 145 651 64T382 -17ZM275 76L84 120L48 326H148L275
76ZM80 667L104 855L309 916L182 667H80ZM349 472L298 566H358Q494 566 494 716Q494 796 459 838T357 881Q271 881 189 823L80 667Q78 735 83 798T101 908Q169 948 256 971T423 994Q558 994 637 928T717 747Q717 622 617 547T349 472Z" />
<glyph unicode="4" horiz-adv-x="855" d="M129 291L19 329L462 977H582L129 291ZM11 233L19 329L114 341H831L824 233H11ZM447 0V871L462 977H655V0H447ZM335 0L341 78Q399 102 479 115L447 25V176H655V25L626 108L771 80L765 0H335Z" />
<glyph unicode="5" horiz-adv-x="804" d="M378 -17Q186 -17 65 85Q52 133 47 193T44 320L156 167Q244 97 366 97Q524 97 524 268Q524 376 466 433T300 491Q271 491 226 487T138 476L159 588Q216 605 278 614T393 623Q558 623 655 538T753 306Q753 158 652 71T378
-17ZM269 76L80 116L44 320H145L269 76ZM138 476L81 518L109 977L225 971L197 504L138 476ZM139 825L109 977H712L700 825H139Z" />
<glyph unicode="6" horiz-adv-x="844" d="M430 -18Q249 -18 152 89T55 394Q55 580 141 720T386 934Q442 960 510 976T649 995L699 889Q584 877 502 844Q280 755 280 400Q280 98 441 98Q508 98 544 146T580 285Q580 386 535 440T406 495Q310 495 219 420L200 476Q330
631 506 631Q643 631 724 548T806 324Q806 167 704 75T430 -18Z" />
<glyph unicode="7" horiz-adv-x="737" d="M107 0L108 24L571 977H725L717 869L336 0H107ZM17 682Q9 836 39 977L203 890L97 682H17ZM42 857L39 977H725L663 857H42Z" />
<glyph unicode="8" horiz-adv-x="866" d="M416 -18Q252 -18 156 48T59 224Q59 320 131 390T340 496L413 456Q267 387 267 251Q267 174 312 133T439 91Q517 91 558 127T600 231Q600 285 568 319T462 379L352 415Q93 502 93 707Q93 839 187 917T443 995Q590 995
678 931T766 756Q766 663 701 597T513 500L449 539Q563 597 563 726Q563 803 527 844T422 886Q294 886 294 758Q294 702 326 668T428 610L538 573Q808 484 808 277Q808 142 702 62T416 -18Z" />
<glyph unicode="9" horiz-adv-x="844" d="M414 995Q595 995 692 888T789 583Q789 397 703 257T458 43Q402 17 334 1T195 -18L145 88Q260 100 342 133Q564 222 564 577Q564 879 403 879Q336 879 300 831T264 692Q264 591 309 537T438 482Q534 482 625 557L644 501Q514
346 338 346Q201 346 120 429T38 653Q38 810 140 902T414 995Z" />
<glyph unicode=":" horiz-adv-x="411" d="M205 -15Q147 -15 112 18T77 109Q77 166 112 199T205 233Q264 233 299 200T334 109Q334 51 299 18T205 -15ZM205 474Q147 474 112 507T77 598Q77 655 112 688T205 722Q264 722 299 689T334 598Q334 540 299 507T205 474Z" />
<glyph unicode=";" horiz-adv-x="411" d="M84 -255L33 -202Q75 -171 110 -136T163 -73Q181 -44 191 -14T206 52L239 14H85Q74 129 107 216Q150 230 196 230Q334 230 334 90Q334 -5 265 -99T84 -255ZM205 474Q147 474 112 507T77 598Q77 655 112 688T205 722Q264
722 299 689T334 598Q334 540 299 507T205 474Z" />
<glyph unicode="&lt;" horiz-adv-x="798" d="M83 430Q79 457 79 489T85 547L682 829L738 719L190 464L83 430ZM682 147L83 430L191 515L739 259L682 147Z" />
<glyph unicode="=" horiz-adv-x="798" d="M77 580V703H721V580H77ZM77 274V398H721V274H77Z" />
<glyph unicode="&gt;" horiz-adv-x="798" d="M715 546Q719 519 719 487T713 429L116 147L60 257L608 512L715 546ZM116 829L715 546L607 461L59 717L116 829Z" />
<glyph unicode="?" horiz-adv-x="715" d="M257 333L241 498L279 523Q375 586 410 634T445 751Q445 894 316 894Q227 894 148 836L42 675Q40 743 45 806T63 916Q127 959 211 983T382 1007Q521 1007 597 946T674 776Q674 713 644 656T544 539T354 404L333 391L376
442L366 333H257ZM42 675L65 883L271 924L144 675H42ZM313 -15Q255 -15 221 17T186 105Q186 161 220 193T313 226Q371 226 405 194T439 105Q439 50 405 18T313 -15Z" />
<glyph unicode="@" horiz-adv-x="1506" d="M693 -284Q393 -284 232 -117T71 362Q71 600 163 774T425 1044T825 1140Q1119 1140 1277 984T1435 539Q1435 312 1338 190T1061 67Q870 67 860 212L842 201L876 676L954 722Q978 744 1004 758H1078L1066 662L1038 265Q1035
222 1049 208T1097 193Q1189 193 1238 276T1288 512Q1288 755 1164 886T806 1018Q626 1018 494 940T289 719T217 382Q217 119 349 -21T726 -162Q814 -162 911 -144T1103 -93L1096 -190Q1031 -233 922 -258T693 -284ZM665 57Q543 57 477 134T410 359Q410 548 516
661T801 774Q883 774 930 747T998 658L954 604Q918 636 874 654T786 672Q704 672 659 601T614 395Q614 185 739 185Q791 185 820 202T878 260L912 212Q869 139 808 98T665 57Z" />
<glyph unicode="A" horiz-adv-x="1014" d="M616 996L937 81L883 107L1012 82L1005 0H602L608 84Q654 104 724 118L706 91L434 928L396 991Q443 996 500 997T616 996ZM523 990L224 81L207 110L333 82L326 0H9L16 80Q37 91 68 101T134 118L77 81L396 991L523 990ZM222
270L255 385H717L751 270H222Z" />
<glyph unicode="B" horiz-adv-x="965" d="M250 0L260 117H487Q683 117 683 278Q683 451 456 451H260V548H468Q919 548 919 299Q919 162 796 81T465 0H250ZM151 15V976H367V15H151ZM231 490L250 557H478Q631 557 631 717Q631 873 484 873H245V990H495Q673 990 768
927T863 746Q863 622 759 556T459 490H231ZM51 0L58 80Q107 101 183 119L151 26V177H367V26L338 111L471 82L465 0H51ZM467 990L461 910Q412 889 335 871L367 964V813H151V964L180 879L47 908L54 990H467Z" />
<glyph unicode="C" horiz-adv-x="970" d="M594 -17Q332 -17 192 110T51 474Q51 637 116 756T301 941T584 1007Q669 1007 750 990T883 942Q902 811 894 685H801L698 909L795 836Q688 891 567 891Q296 891 296 510Q296 99 611 99Q736 99 839 155L834 77L694 89L824
321H921Q923 190 888 49Q837 19 758 1T594 -17Z" />
<glyph unicode="D" horiz-adv-x="1055" d="M265 0V120H507Q631 120 697 217T763 495Q763 870 454 870H265V990H463Q726 990 867 866T1009 512Q1009 356 945 241T764 63T487 0H265ZM151 15V976H367V15H151ZM51 0L58 80Q107 101 183 119L151 26V177H367V26L338 111L471
82L465 0H51ZM467 990L461 910Q412 889 335 871L367 964V813H151V964L180 879L47 908L54 990H467Z" />
<glyph unicode="E" horiz-adv-x="924" d="M151 15V976H367V15H151ZM264 0V120H811L835 0H264ZM835 0L652 73L782 305H879Q881 242 870 161T835 0ZM248 445V571H696L687 445H248ZM206 870V990H824L805 870H206ZM746 703L649 913L824 990Q839 919 844 845T845 703H746ZM51
0L58 80Q107 101 183 119L151 26V177H367V26L338 111L471 82L465 0H51ZM467 990L461 910Q412 889 335 871L367 964V813H151V964L180 879L47 908L54 990H467Z" />
<glyph unicode="F" horiz-adv-x="840" d="M151 15V976H367V15H151ZM248 412V539H676L667 412H248ZM206 870V990H780L761 870H206ZM708 689L605 913L780 990Q795 921 800 843T801 689H708ZM51 0L58 80Q107 101 183 119L151 26V177H367V26L337 110L501 82L495 0H51ZM467
990L461 910Q412 889 335 871L367 964V813H151V964L180 879L47 908L54 990H467Z" />
<glyph unicode="G" horiz-adv-x="1026" d="M608 -17Q340 -17 196 110T51 473Q51 636 118 756T308 941T598 1007Q687 1007 767 990T896 942Q905 877 908 813T907 697H811L714 909L810 836Q699 891 580 891Q292 891 292 512Q292 106 626 106Q755 106 872 160L929
48Q872 17 789 0T608 -17ZM717 41V395H929V48L717 41ZM717 295V435L743 368L570 395L576 477H989L982 387Q949 369 897 358L929 435V295H717Z" />
<glyph unicode="H" horiz-adv-x="1111" d="M743 15V976H959V15H743ZM151 15V976H367V15H151ZM253 440V558H850V440H253ZM51 0L58 80Q107 101 183 119L151 26V177H367V26L338 111L471 82L465 0H51ZM643 0L650 80Q699 101 775 119L743 26V177H959V26L930 111L1063
82L1057 0H643ZM1059 990L1053 910Q1004 889 927 871L959 964V813H743V964L772 879L639 908L646 990H1059ZM467 990L461 910Q412 889 335 871L367 964V813H151V964L180 879L47 908L54 990H467Z" />
<glyph unicode="I" horiz-adv-x="523" d="M153 15V976H369V15H153ZM53 0L60 80Q109 101 185 119L153 26V177H369V26L340 111L473 82L467 0H53ZM469 990L463 910Q414 889 337 871L369 964V813H153V964L182 879L49 908L56 990H469Z" />
<glyph unicode="J" horiz-adv-x="717" d="M269 -16Q149 -16 55 20Q31 142 39 271H139L229 77L141 127Q208 102 260 102Q377 102 377 253L593 230Q593 114 508 49T269 -16ZM593 230L377 253V976H593V230ZM683 990L677 910Q637 890 562 870L593 964V813H377V964L408
880L239 908L246 990H683Z" />
<glyph unicode="K" horiz-adv-x="1007" d="M738 0L402 453V522L754 922L742 880L604 908L610 990H985L978 910Q957 899 926 889T860 872L932 916L545 484L582 561L956 81L873 112L1007 86L1000 0H738ZM151 15V974H367V15H151ZM264 426V548H526V426H264ZM51 0L58
80Q107 101 183 119L151 26V177H367V26L338 111L471 82L465 0H51ZM467 990L461 910Q412 889 335 871L367 964V813H151V964L180 879L47 908L54 990H467Z" />
<glyph unicode="L" horiz-adv-x="886" d="M151 15V976H367V15H151ZM263 0V120H767L805 0H263ZM805 0L616 73L767 345H851Q851 160 805 0ZM507 990L501 910Q470 900 428 891T335 874L367 964V813H151V964L180 879L47 908L54 990H507ZM51 0L58 80Q107 101 183 119L151
26V177H367V26L338 111L471 82L465 0H51Z" />
<glyph unicode="M" horiz-adv-x="1407" d="M585 47L236 990H457L763 134L752 51Q713 47 670 46T585 47ZM37 0L44 80Q91 103 163 119L127 36L186 944L212 879L72 908L78 990H327L275 38L249 110L393 82L387 0H37ZM752 51L629 70L946 990H1100L752 51ZM948 0L955
80Q982 91 1017 100T1090 118L1062 43L1011 990H1324L1318 910Q1263 887 1185 872L1216 935L1275 46L1243 111L1369 82L1363 0H948Z" />
<glyph unicode="N" horiz-adv-x="1087" d="M818 -6L162 834L294 990L950 148L959 -1Q899 -11 818 -6ZM153 15V976L301 917V15H153ZM296 818L180 861L47 908L54 990H294L296 818ZM959 -1L811 71V976H959V-1ZM53 0L59 80Q108 101 185 119L153 26V177H301V26L272
110L419 82L413 0H53ZM1053 990L1047 910Q993 886 927 871L959 964V813H811V964L840 879L707 908L713 990H1053Z" />
<glyph unicode="O" horiz-adv-x="1090" d="M544 -18Q393 -18 283 45T112 223T51 494Q51 651 111 766T283 945T545 1008Q696 1008 807 945T978 767T1039 496Q1039 339 979 224T807 45T544 -18ZM569 100Q794 100 794 457Q794 666 723 778T521 890Q296 890 296 533Q296
324 367 212T569 100Z" />
<glyph unicode="P" horiz-adv-x="914" d="M458 330Q358 330 244 342L259 456Q371 444 476 444Q646 444 646 659Q646 870 484 870H244V990H493Q682 990 784 910T886 681Q886 520 771 425T458 330ZM151 15V976H367V15H151ZM51 0L58 80Q107 101 183 119L151 26V177H367V26L337
110L501 82L495 0H51ZM467 990L461 910Q412 889 335 871L367 964V813H151V964L180 879L47 908L54 990H467Z" />
<glyph unicode="Q" horiz-adv-x="1090" d="M952 -285Q776 -285 650 -205T465 26L682 104Q770 -152 1027 -152Q1077 -152 1131 -143T1232 -118L1224 -224Q1177 -253 1105 -269T952 -285ZM547 -18Q396 -18 285 45T114 223T53 494Q53 651 113 766T285 945T548 1008Q699
1008 810 945T981 767T1042 496Q1042 339 982 224T810 45T547 -18ZM572 100Q797 100 797 457Q797 665 726 777T523 890Q299 890 299 533Q299 324 369 212T572 100Z" />
<glyph unicode="R" horiz-adv-x="985" d="M720 0L413 406L626 465L930 81L847 112L981 86L974 0H720ZM438 375Q338 375 224 387L239 497Q351 485 456 485Q633 485 633 680Q633 870 464 870H244V990H473Q665 990 768 916T871 703Q871 581 793 502T571 402L508 379Q491
377 474 376T438 375ZM151 15V976H367V15H151ZM51 0L58 80Q107 101 183 119L151 26V177H367V26L340 111L463 82L457 0H51ZM467 990L461 910Q412 889 335 871L367 964V813H151V964L180 879L47 908L54 990H467Z" />
<glyph unicode="S" horiz-adv-x="826" d="M379 -16Q187 -16 67 72Q43 229 55 339H148L263 88L180 158Q288 97 402 97Q483 97 527 131T571 227Q571 279 537 313T425 371L315 405Q56 486 56 699Q56 839 156 922T426 1006Q579 1006 704 942Q723 812 715 705H618L523
909L625 832Q508 893 403 893Q254 893 254 772Q254 718 291 683T410 621L520 587Q773 508 773 299Q773 154 667 69T379 -16Z" />
<glyph unicode="T" horiz-adv-x="925" d="M355 15V976H571V15H355ZM26 675Q13 838 43 990L224 913L114 675H26ZM60 870L43 990H882L847 870H60ZM811 675L701 913L882 990Q912 838 899 675H811ZM239 0L245 80Q274 92 311 101T387 117L355 26V177H571V26L541 110L691
82L684 0H239Z" />
<glyph unicode="U" horiz-adv-x="1043" d="M523 -17Q342 -17 235 66T127 289L347 317Q347 226 400 177T553 128Q652 128 706 177T760 317L919 289Q919 149 812 66T523 -17ZM127 289V976H347V317L127 289ZM127 813V964L156 878L33 908L40 990H461L455 910Q435 902
399 893T314 872L347 964V813H127ZM919 289L760 317V976H919V289ZM760 813V964L790 880L642 908L648 990H1009L1003 910Q963 890 888 870L919 964V813H760Z" />
<glyph unicode="V" horiz-adv-x="986" d="M388 -6L77 909L131 883L2 908L9 990H424L418 908Q375 889 291 874L310 899L571 62L600 -1Q557 -6 498 -7T388 -6ZM472 0L760 909L779 880L641 908L648 990H977L970 910Q949 899 918 889T852 872L909 909L600 -1L472 0Z" />
<glyph unicode="W" horiz-adv-x="1462" d="M342 -6L78 910L132 882L2 908L9 990H420L414 908Q371 889 287 874L306 904L520 76L546 -1Q504 -6 448 -7T342 -6ZM546 -1L427 14L674 960L802 959L546 -1ZM919 -6L687 897L674 960Q717 965 769 966T869 966L1094 77L1122
-1Q1081 -6 1025 -7T919 -6ZM1122 -1L1002 15L1239 909L1261 880L1123 908L1130 990H1453L1447 910Q1427 899 1396 890T1328 872L1383 908L1122 -1Z" />
<glyph unicode="X" horiz-adv-x="1011" d="M552 0L558 82Q615 103 685 116L674 90L421 466L620 534L941 73L865 110L998 82L991 0H552ZM19 0L26 80Q79 106 144 117L72 79L422 525L580 520L246 79L242 110L374 82L367 0H19ZM407 460L86 917L162 880L29 908L36 990H473L467
908Q414 887 342 874L353 900L607 528L407 460ZM581 469L423 474L757 911L761 880L631 908L638 990H984L977 910Q924 884 859 873L931 911L581 469Z" />
<glyph unicode="Y" horiz-adv-x="946" d="M368 341L74 909L131 883L2 908L9 990H422L416 908Q373 889 289 874L304 899L549 410L580 346L368 341ZM450 347L725 909L741 880L603 908L610 990H937L930 910Q909 899 878 889T812 872L873 909L580 346L450 347ZM366
15V411H582V15H366ZM250 0L256 80Q286 92 322 101T398 117L366 26V177H582V26L552 110L702 82L696 0H250Z" />
<glyph unicode="Z" horiz-adv-x="907" d="M30 0L37 101L667 990H860L853 889L224 0H30ZM30 0L178 113H833L830 0H30ZM65 665Q58 748 63 832T82 990L263 918L149 665H65ZM80 877L82 990H860L713 877H80ZM861 345Q865 268 857 179T831 0L653 62L777 345H861Z" />
<glyph unicode="[" horiz-adv-x="501" d="M97 -222V1241H279V-222H97ZM97 -222L115 -102L491 -142L484 -222H97ZM115 1121L97 1241H484L491 1161L115 1121Z" />
<glyph unicode="\" horiz-adv-x="633" d="M607 -200L179 1225Q109 1236 26 1230L454 -195Q525 -206 607 -200Z" />
<glyph unicode="]" horiz-adv-x="501" d="M404 1240V-223H222V1240H404ZM404 1240L386 1120L10 1160L17 1240H404ZM386 -103L404 -223H17L10 -143L386 -103Z" />
<glyph unicode="^" horiz-adv-x="798" d="M642 526L327 866L450 990L718 580L642 526ZM153 523L78 575L339 987Q391 996 450 990L445 853L153 523Z" />
<glyph unicode="_" horiz-adv-x="663" d="M9 -209V-75H654V-209H9Z" />
<glyph unicode="`" horiz-adv-x="800" d="M489 833L196 1079L191 1123Q274 1164 377 1167L566 877L489 833Z" />
<glyph unicode="a" horiz-adv-x="796" d="M463 108Q463 191 465 277T467 440V527Q467 669 338 669Q255 669 178 611L89 523Q86 620 100 700Q244 780 414 780Q673 780 673 556Q673 527 672 470T670 345T668 220T667 132L463 108ZM89 523L100 638L281 695L192 523H89ZM261
-15Q160 -15 100 42T40 195Q40 399 342 462L517 499L533 399L390 381Q317 373 285 340T252 243Q252 117 354 117Q426 117 531 192L549 143Q424 -15 261 -15ZM516 -4L473 135L667 183V61L635 118L755 83L748 8Q661 -6 516 -4Z" />
<glyph unicode="b" horiz-adv-x="869" d="M434 -18Q278 -18 205 76L237 171Q326 96 422 96Q510 96 557 167T605 371Q605 503 558 574T424 645Q339 645 245 570L226 627Q357 781 520 781Q662 781 746 680T830 407Q830 212 723 97T434 -18ZM98 0L105 144V1070L313
1030V76L243 52Q219 22 186 0H98ZM105 898V1023L132 961L-3 1021L3 1078Q105 1115 236 1120H313V948L105 898Z" />
<glyph unicode="c" horiz-adv-x="737" d="M437 -16Q247 -16 146 83T45 366Q45 557 150 669T433 781Q564 781 669 722Q679 677 683 624T683 517H583L495 689L575 619Q535 642 495 655T422 668Q351 668 313 604T274 417Q274 127 512 127Q608 127 707 164L698 47Q595
-16 437 -16Z" />
<glyph unicode="d" horiz-adv-x="887" d="M349 -18Q207 -18 123 83T39 357Q39 551 146 666T435 781Q591 781 664 687L632 592Q543 667 447 667Q359 667 312 596T264 392Q264 260 311 189T445 118Q530 118 624 193L643 137Q512 -18 349 -18ZM763 59L555 99V1017H763V59ZM555
898V1023L583 961L437 1022L443 1078Q555 1115 686 1120H763V948L555 898ZM613 -4L569 135L763 183V61L732 118L851 83L845 8Q758 -6 613 -4Z" />
<glyph unicode="e" horiz-adv-x="800" d="M450 -16Q255 -16 150 84T45 371Q45 559 148 670T428 781Q586 781 671 688T757 419Q757 404 756 384T753 349L538 392Q538 539 507 604T405 669Q269 669 269 440Q269 127 525 127Q625 127 734 168L725 51Q676 19 604 2T450
-16ZM138 349V444H737L753 349H138Z" />
<glyph unicode="f" horiz-adv-x="565" d="M143 6V742Q143 859 188 948T312 1088T495 1138Q554 1138 594 1122L582 971Q520 985 470 985Q402 985 375 949T347 822V710L350 690V6H143ZM28 647L35 734Q88 753 151 763H549L539 647H28ZM53 0L60 76Q88 90 116 99T174
115L143 25V175H350V25L321 105L500 78L493 0H53Z" />
<glyph unicode="g" horiz-adv-x="806" d="M372 242Q226 242 140 314T54 510Q54 634 140 707T373 780Q451 780 523 746T643 650T691 511Q691 387 605 315T372 242ZM383 342Q487 342 487 494Q487 680 361 680Q258 680 258 527Q258 438 290 390T383 342ZM774 644L531
656L373 780Q419 780 449 775T504 763T565 757Q590 757 651 760T786 771L774 644ZM358 -350Q204 -350 113 -296T22 -148Q22 -25 203 38L263 4Q194 -49 194 -116Q194 -178 244 -211T390 -244Q490 -244 549 -208T609 -111Q609 -52 533 -52H296Q205 -52 157 -12T109
103Q109 229 260 304L334 292Q260 236 260 177Q260 121 336 121H574Q684 121 742 76T801 -54Q801 -140 744 -207T587 -312T358 -350Z" />
<glyph unicode="h" horiz-adv-x="939" d="M133 6V1034L341 1005V6H133ZM601 6V507Q601 644 477 644Q380 644 274 560L255 617Q379 780 578 780Q690 780 749 723T809 558V6H601ZM43 0L50 76Q78 90 106 99T164 115L133 25V175H341V25L314 106L441 78L434 0H43ZM524
0L530 80Q551 90 577 99T632 114L601 25V175H809V25L781 107L903 78L897 0H524ZM133 898V1023L160 961L25 1021L31 1078Q133 1115 264 1120H341V948L133 898Z" />
<glyph unicode="i" horiz-adv-x="491" d="M147 6V692L355 711V6H147ZM147 513V641L182 581L44 654L49 713Q100 735 164 750T298 772H355V613L147 513ZM51 0L58 76Q83 88 113 97T179 115L147 25V175H355V25L326 107L455 78L449 0H51ZM236 872Q178 872 144 904T110
992Q110 1047 144 1079T236 1112Q294 1112 328 1080T362 992Q362 937 328 905T236 872Z" />
<glyph unicode="j" horiz-adv-x="442" d="M94 -346L29 -293L52 -265Q93 -215 110 -138T128 65V693L336 706V110Q336 -41 315 -119Q295 -192 241 -250T94 -346ZM128 513V641L163 581L25 654L30 713Q81 735 145 750T279 772H336V613L128 513ZM215 872Q157 872 123
904T89 992Q89 1047 123 1079T215 1112Q273 1112 307 1080T341 992Q341 937 307 905T215 872Z" />
<glyph unicode="k" horiz-adv-x="895" d="M133 6V1054H341V6H133ZM239 345V458H439V345H239ZM648 0L382 372V433L652 698L630 652L506 681L513 763H858L851 683Q829 669 801 660T743 644L821 693L523 411L552 467L851 77L768 111L890 82L883 0H648ZM43 0L50 76Q78
90 106 99T164 115L133 25V175H341V25L314 106L433 80L426 0H43ZM133 898V1023L160 961L25 1021L31 1078Q133 1115 264 1120H341V948L133 898Z" />
<glyph unicode="l" horiz-adv-x="501" d="M147 6V1034L355 1005V6H147ZM45 0L52 76Q77 87 108 96T178 115L147 25V175H355V25L327 107L461 78L455 0H45ZM147 898V1023L174 961L39 1021L45 1078Q147 1115 278 1120H355V948L147 898Z" />
<glyph unicode="m" horiz-adv-x="1396" d="M1059 6V507Q1059 644 939 644Q847 644 740 560L720 624Q847 780 1039 780Q1148 780 1207 723T1267 558V6H1059ZM53 0L60 76Q88 90 116 99T174 115L143 25V175H351V25L324 106L447 78L440 0H53ZM143 6V678L351 636V6H143ZM523
0L529 80Q550 90 576 99T631 114L600 25V175H808V25L780 107L898 78L892 0H523ZM600 6V507Q600 644 482 644Q390 644 284 560L264 624Q391 780 581 780Q690 780 749 724T808 560V6H600ZM143 513V641L178 581L40 654L45 713Q96 735 160 750T294 772L344 600L143
513ZM981 0L988 80Q1009 90 1035 99T1090 114L1059 25V175H1267V25L1239 107L1361 78L1354 0H981Z" />
<glyph unicode="n" horiz-adv-x="946" d="M609 6V507Q609 644 486 644Q390 644 284 560L264 624Q326 701 410 740T586 780Q698 780 757 723T817 558V6H609ZM143 6V678L351 636V6H143ZM53 0L60 76Q88 90 116 99T174 115L143 25V175H351V25L324 106L451 78L444 0H53ZM531
0L538 80Q559 90 585 99T640 114L609 25V175H817V25L789 107L911 78L904 0H531ZM143 513V641L178 581L40 654L45 713Q96 735 160 750T294 772L344 600L143 513Z" />
<glyph unicode="o" horiz-adv-x="871" d="M435 -18Q256 -18 151 89T45 380Q45 564 151 672T437 781Q616 781 721 673T827 383Q827 199 721 91T435 -18ZM451 96Q597 96 597 355Q597 506 551 586T420 667Q274 667 274 408Q274 257 320 177T451 96Z" />
<glyph unicode="p" horiz-adv-x="886" d="M451 -18Q295 -18 222 76L254 171Q343 96 439 96Q527 96 574 167T622 371Q622 503 575 574T441 645Q356 645 262 570L243 627Q374 781 537 781Q679 781 763 680T847 407Q847 212 740 97T451 -18ZM32 -320L39 -244Q67 -230
95 -221T153 -205L122 -295V-145H330V-295L303 -215L470 -242L463 -320H32ZM122 -309V672L330 631V-309H122ZM122 513V641L157 581L19 654L24 713Q75 735 139 750T273 772L323 600L122 513Z" />
<glyph unicode="q" horiz-adv-x="875" d="M349 -18Q207 -18 123 83T39 357Q39 551 146 666T435 781Q591 781 664 687L632 592Q543 667 447 667Q359 667 312 596T264 392Q264 260 311 189T445 118Q530 118 624 193L643 137Q512 -18 349 -18ZM425 -320L432 -244Q498
-221 586 -208L555 -295V-145H763V-295L736 -214L863 -242L856 -320H425ZM555 -311V684L625 711Q650 741 683 763H771L763 633V-311H555Z" />
<glyph unicode="r" horiz-adv-x="614" d="M143 6V646L351 595V6H143ZM53 0L60 76Q88 90 116 99T174 115L143 25V175H351V25L324 105L491 78L484 0H53ZM295 491L275 531Q330 660 393 716T543 773Q557 773 570 772T592 767L579 600Q556 603 533 605T492 608Q431
608 385 581T295 491ZM143 513V641L178 581L40 654L45 713Q96 735 160 750T294 772L344 600L143 513Z" />
<glyph unicode="s" horiz-adv-x="686" d="M317 -16Q165 -16 61 53Q51 97 47 150T46 257H143L232 85L168 140Q244 91 333 91Q450 91 450 176Q450 239 355 269L261 298Q55 362 55 532Q55 645 136 712T354 779Q478 779 580 729Q599 646 596 543H495L406 715L503 626Q417
673 338 673Q240 673 240 596Q240 531 342 499L436 470Q541 437 590 380T639 240Q639 123 552 54T317 -16Z" />
<glyph unicode="t" horiz-adv-x="569" d="M354 -12Q122 -12 122 206V692L131 763L184 955H330V236Q330 174 353 146T428 118Q473 118 543 135L536 29Q464 -12 354 -12ZM8 647L15 734Q68 753 131 763H539L529 647H8Z" />
<glyph unicode="u" horiz-adv-x="894" d="M337 -17Q97 -17 97 217V670L305 659V249Q305 179 330 148T411 117Q520 117 631 206L650 141Q516 -17 337 -17ZM97 528V647L132 604L13 668L19 735Q114 769 248 772H305V612L97 528ZM764 59L556 99V668L764 658V59ZM556
528V647L591 603L463 671L468 732Q518 750 580 760T707 772H764V612L556 528ZM614 -4L570 135L764 183V61L733 118L852 83L846 8Q759 -6 614 -4Z" />
<glyph unicode="v" horiz-adv-x="837" d="M521 -1L399 0L628 681L645 653L530 681L536 763H827L821 683Q798 669 770 660T712 644L769 680L521 -1ZM318 -6L67 680L129 653L2 681L9 763H386L380 681Q358 671 330 662T273 646L292 671L492 62L521 -1Q481 -6 424 -7T318 -6Z" />
<glyph unicode="w" horiz-adv-x="1217" d="M284 -6L70 681L126 652L4 681L11 763H384L378 681Q358 671 329 662T271 646L290 676L450 76L479 -1Q458 -4 421 -6T346 -8T284 -6ZM368 14L565 738L687 737L479 -1L368 14ZM741 -6L576 605L565 738Q599 743 645 744T731
744L906 76L937 -1Q917 -4 880 -6T804 -8T741 -6ZM825 14L1010 680L1024 652L913 681L920 763H1206L1201 683Q1178 669 1150 660T1092 644L1147 679L937 -1L825 14Z" />
<glyph unicode="x" horiz-adv-x="843" d="M19 0L26 76Q49 90 77 99T134 115L62 77L348 410L494 405L220 77L212 106L328 78L321 0H19ZM434 0L440 78Q462 88 490 97T547 113L536 88L341 351L526 419L783 71L703 106L830 78L823 0H434ZM423 763L417 681Q395 671
367 662T310 646L323 675L518 413L333 345L76 692L156 653L29 681L36 763H423ZM816 763L809 683Q787 669 759 660T701 644L773 686L487 354L341 359L615 686L625 653L509 681L516 763H816Z" />
<glyph unicode="y" horiz-adv-x="843" d="M378 -356Q268 -343 186 -300L379 22L413 48L642 679L659 653L544 681L550 763H837L831 683Q811 669 783 660T726 644L783 678L378 -356ZM354 -77L65 680L127 653L0 681L7 763H384L378 681Q356 671 328 662T271 646L290
671L496 62L480 -1L354 -77Z" />
<glyph unicode="z" horiz-adv-x="741" d="M24 0L31 88L514 763H700L692 675L210 0H24ZM24 0L150 99H651L676 0H24ZM92 665L72 763H700L573 665H92ZM51 512Q44 635 72 763L234 684L145 512H51ZM676 0L519 93L613 275H701Q707 145 676 0Z" />
<glyph unicode="{" horiz-adv-x="486" d="M416 -239Q283 -231 212 -166T141 14Q141 66 152 107T174 188T186 276Q186 349 151 392T42 460Q38 508 46 546Q117 574 151 616T186 723Q186 766 175 801T152 878T141 977Q141 1105 212 1177T416 1258L449 1194Q319 1151
319 1004Q319 954 330 918T351 843T362 745Q362 539 174 503V522Q362 486 362 298Q362 244 352 206T330 129T319 33Q319 -132 449 -175L416 -239Z" />
<glyph unicode="|" horiz-adv-x="521" d="M196 -258V1248H325V-258H196Z" />
<glyph unicode="}" horiz-adv-x="486" d="M70 1258Q203 1250 274 1185T345 1005Q345 953 334 912T312 831T300 743Q300 670 335 627T444 559Q448 511 440 473Q369 445 335 403T300 296Q300 253 311 218T334 141T345 42Q345 -86 274 -158T70 -239L37 -175Q167 -132
167 15Q167 65 156 101T135 176T124 274Q124 480 312 516V497Q124 533 124 721Q124 775 134 813T156 890T167 986Q167 1151 37 1194L70 1258Z" />
<glyph unicode="~" horiz-adv-x="798" d="M118 382L49 426Q125 610 265 610Q324 610 370 587T458 541T542 518Q617 518 680 616L749 571Q673 388 533 388Q474 388 428 411T340 457T256 480Q181 480 118 382Z" />
<glyph unicode="&#xa0;" horiz-adv-x="313" />
<glyph unicode="&#xa1;" horiz-adv-x="417" d="M268 430L329 -187V-226Q279 -233 219 -234T98 -232V-187L159 430H268ZM214 778Q272 778 306 746T340 657Q340 602 306 570T214 537Q156 537 122 569T87 658Q87 713 121 745T214 778Z" />
<glyph unicode="&#xa2;" horiz-adv-x="747" d="M438 -6Q258 -6 162 87T65 356Q65 536 165 643T434 750Q560 750 661 693Q670 650 674 599T674 497H580L498 661L570 595Q492 642 424 642Q353 642 318 582T282 405Q282 262 337 197T511 131Q603 131 697 166L689
55Q590 -6 438 -6ZM355 -166L429 910H513L439 -166H355Z" />
<glyph unicode="&#xa3;" horiz-adv-x="981" d="M77 0L86 100Q146 154 170 211T194 355Q194 414 187 452T172 527T164 615Q164 789 272 891T565 994Q633 994 702 979T825 936Q833 879 836 818T836 699H745L648 911L741 834Q638 883 548 883Q385 883 385 659Q385
574 400 513T415 378Q415 261 349 177T120 0H77ZM104 0L177 109H840L864 0H104ZM864 0L682 70L827 331H907Q907 246 896 160T864 0ZM63 529H685L677 436H55L63 529Z" />
<glyph unicode="&#xa4;" horiz-adv-x="803" d="M404 195Q263 195 179 277T95 496Q95 633 179 715T404 797Q545 797 629 715T714 496Q714 359 630 277T404 195ZM695 118L546 281L620 347L769 184L695 118ZM419 330Q559 330 559 480Q559 563 513 612T390 661Q323
661 287 623T250 511Q250 428 295 379T419 330ZM188 645L39 808L114 874L263 711L188 645ZM695 874L769 808L620 645L546 711L695 874ZM188 347L263 281L114 118L39 184L188 347Z" />
<glyph unicode="&#xa5;" horiz-adv-x="942" d="M354 414L91 899L146 874L22 898L29 977H425L420 898Q400 889 369 881T298 865L312 890L544 436L590 419L354 414ZM257 0L263 77Q321 100 399 112L368 25V170H576V25L547 106L691 79L686 0H257ZM368 14V435H576V14H368ZM449
385L710 899L725 872L593 898L599 977H913L906 900Q887 889 857 880T792 864L851 899L590 419L449 385ZM151 405L158 491H793L786 405H151ZM151 227L158 312H793L786 227H151Z" />
<glyph unicode="&#xa6;" horiz-adv-x="521" d="M196 625V1248H325V625H196ZM196 365H325V-258H196V365Z" />
<glyph unicode="&#xa7;" horiz-adv-x="749" d="M348 -226Q278 -226 215 -210T100 -164Q80 -30 90 81H182L297 -170L199 -70Q275 -119 364 -119L426 -139Q497 -116 525 -76T553 39Q553 132 520 213T439 366T342 507T260 643T227 784Q227 830 245 859T309 912L409
993Q530 993 627 949Q635 901 638 846T637 733H542L447 937L558 840Q472 887 393 887Q345 887 345 840Q345 796 378 741T461 617T559 467T642 292T675 88Q675 -67 589 -146T348 -226ZM348 -226L364 -119Q402 -119 402 -76Q402 -31 369 26T286 151T188 300T105 475T71
678Q71 835 160 914T409 993L389 887L323 906Q251 882 223 842T194 727Q194 635 227 555T308 402T405 261T487 124T520 -17Q520 -63 501 -92T439 -144L348 -226Z" />
<glyph unicode="&#xa8;" horiz-adv-x="800" d="M239 872Q187 872 157 902T126 983Q126 1033 156 1063T239 1093Q291 1093 321 1063T352 983Q352 932 322 902T239 872ZM561 872Q509 872 479 902T448 983Q448 1033 478 1063T561 1093Q613 1093 643 1063T674 983Q674
932 644 902T561 872Z" />
<glyph unicode="&#xa9;" horiz-adv-x="1566" d="M810 117Q640 117 550 206T459 461Q459 632 553 733T807 834Q924 834 1019 781Q1028 741 1031 693T1032 597H943L862 751L934 688Q899 709 863 720T798 732Q734 732 699 674T664 507Q664 246 878 246Q966 246 1053
279L1045 174Q951 117 810 117ZM780 -224Q563 -224 404 -137T158 109T71 486Q71 705 158 865T406 1112T785 1200Q1002 1200 1161 1113T1408 867T1495 491Q1495 273 1408 112T1160 -136T780 -224ZM784 -102Q1054 -102 1201 51T1348 487Q1348 770 1200 924T780 1078Q511
1078 364 925T217 490Q217 207 365 53T784 -102Z" />
<glyph unicode="&#xaa;" horiz-adv-x="553" d="M313 582Q313 631 314 683T316 781V832Q316 917 234 917Q181 917 131 882L64 827Q62 889 73 943Q170 995 289 995Q467 995 467 860Q467 837 466 783T464 675T463 596L313 582ZM64 827L72 896L199 930L139 827H64ZM182
508Q113 508 73 543T32 639Q32 764 235 803L354 827L366 759L272 749Q187 740 187 671Q187 598 250 598Q295 598 364 643L376 606Q292 508 182 508ZM353 513L321 602L463 634V554L439 597L517 576L513 522Q455 513 353 513Z" />
<glyph unicode="&#xab;" horiz-adv-x="846" d="M212 365L55 373Q54 392 55 410T61 443L375 756L451 696L212 365ZM375 54L55 373L212 446L451 114L375 54ZM549 365L392 373Q391 392 392 410T398 443L712 756L788 696L549 365ZM712 54L392 373L549 446L788 114L712 54Z" />
<glyph unicode="&#xac;" horiz-adv-x="798" d="M77 578V701H721V578H77ZM598 270V670H721V270H598Z" />
<glyph unicode="&#xad;" horiz-adv-x="605" d="M80 383V532H532V383H80Z" />
<glyph unicode="&#xae;" horiz-adv-x="1148" d="M572 288Q419 288 306 349T132 523T71 789Q71 943 133 1057T308 1233T577 1295Q730 1295 842 1234T1016 1060T1078 794Q1078 639 1016 526T840 350T572 288ZM576 389Q757 389 855 493T953 790Q953 984 854 1089T572
1194Q390 1194 292 1090T194 793Q194 600 293 495T576 389ZM691 541L533 747L653 769L807 585L761 604L828 590L826 541H691ZM554 731Q504 731 447 737L454 808Q511 802 563 802Q648 802 648 889Q648 976 567 976H457V1042H571Q671 1042 725 1006T780 900Q780 838
740 796T630 742L589 733Q581 732 572 732T554 731ZM400 552V1032H524V552H400ZM564 1042L562 996Q549 991 538 986T508 977L524 1025V944H400V1025L416 981L353 995L356 1042H564ZM355 541L358 587Q371 592 385 597T417 607L400 566V639H524V566L510 603L572 588L570
541H355Z" />
<glyph unicode="&#xaf;" horiz-adv-x="800" d="M145 1032H655V910H145V1032Z" />
<glyph unicode="&#xb0;" horiz-adv-x="625" d="M312 549Q196 549 126 617T55 800Q55 914 125 982T312 1051Q429 1051 499 983T570 800Q570 686 500 618T312 549ZM323 669Q435 669 435 788Q435 854 399 892T301 931Q190 931 190 812Q190 746 226 708T323 669Z" />
<glyph unicode="&#xb1;" horiz-adv-x="798" d="M77 567V690H721V567H77ZM77 91V213H721V91H77ZM337 308V949H461V308H337Z" />
<glyph unicode="&#xb2;" horiz-adv-x="530" d="M18 564L24 630L125 725Q198 795 237 838T292 914T308 982Q308 1056 231 1056Q176 1056 126 1023L41 928Q39 962 43 1006T55 1077Q146 1133 272 1133Q370 1133 422 1097T474 987Q474 941 453 895T377 789T227 647L131
564H18ZM18 564L119 635H482L480 564H18ZM480 564L366 615L431 724H496Q499 648 480 564ZM41 928L55 1059L196 1067L114 928H41Z" />
<glyph unicode="&#xb3;" horiz-adv-x="526" d="M249 554Q120 554 45 614Q36 644 33 682T31 764L115 671Q165 633 242 633Q324 633 324 717Q324 814 237 814H187L194 894L244 889Q363 889 427 848T491 729Q491 649 426 602T249 554ZM185 624L53 649L31 764H102L185
624ZM51 933L66 1038L206 1072L124 933H51ZM228 834L194 894H235Q307 894 307 972Q307 1056 234 1056Q181 1056 129 1023L51 933Q49 975 52 1014T65 1082Q108 1106 164 1119T275 1133Q363 1133 416 1095T470 991Q470 919 404 877T228 834Z" />
<glyph unicode="&#xb4;" horiz-adv-x="800" d="M321 833L244 877L443 1167Q546 1164 629 1123L624 1079L321 833Z" />
<glyph unicode="&#xb5;" horiz-adv-x="872" d="M742 146L544 139V757Q629 775 752 773Q747 687 745 554T742 249V146ZM570 157L742 183Q742 147 766 129T850 99L844 18Q786 -3 727 -3Q653 -3 618 32T570 157ZM85 757Q170 775 293 773L264 308Q264 170 269 9T283
-314Q198 -331 75 -330Q80 -244 82 -119T85 177V757ZM372 -13Q175 -13 175 217V732L293 773Q288 687 286 554T283 249Q283 185 309 156T395 127Q473 127 518 173T569 306L612 241Q601 119 539 53T372 -13Z" />
<glyph unicode="&#xb6;" horiz-adv-x="918" d="M353 403Q213 403 130 482T47 696Q47 830 131 910T358 990H518V416Q471 409 432 406T353 403ZM638 -210V976H783V-210H638ZM450 876V990H727V876H450ZM390 -210V990H536V-210H390ZM885 990L879 914Q852 903 821 894T752
875L783 965V815H660V990H885Z" />
<glyph unicode="&#xb7;" horiz-adv-x="398" d="M208 408Q150 408 115 441T80 532Q80 589 115 622T208 656Q267 656 302 623T337 532Q337 474 302 441T208 408Z" />
<glyph unicode="&#xb8;" horiz-adv-x="800" d="M274 -368L250 -290Q267 -289 281 -287T306 -283Q343 -276 365 -255T387 -204Q387 -168 350 -168Q332 -168 312 -174L277 -113L306 -100Q332 -90 358 -84T408 -78Q469 -78 506 -107T543 -186Q543 -250 482 -298T319
-363Q298 -366 274 -368ZM336 -121L291 -55L349 60L404 -1L336 -121Z" />
<glyph unicode="&#xb9;" horiz-adv-x="442" d="M158 572V1071L312 1124V572H158ZM176 1005L51 1021L48 1072Q97 1094 153 1109T267 1130H312V1051L176 1005ZM57 564L62 619Q90 625 121 630T183 639L158 578V672H312V578L291 635L409 620L404 564H57Z" />
<glyph unicode="&#xba;" horiz-adv-x="586" d="M292 506Q173 506 103 572T32 750Q32 863 102 929T294 995Q413 995 483 929T554 751Q554 639 483 573T292 506ZM302 586Q387 586 387 734Q387 821 360 868T284 916Q199 916 199 767Q199 680 225 633T302 586Z" />
<glyph unicode="&#xbb;" horiz-adv-x="846" d="M634 445L791 437Q792 418 791 400T785 367L471 54L395 114L634 445ZM471 756L791 437L634 364L395 696L471 756ZM297 445L454 437Q455 418 454 400T448 367L134 54L58 114L297 445ZM134 756L454 437L297 364L58
696L134 756Z" />
<glyph unicode="&#xbc;" horiz-adv-x="1146" d="M141 496V943L285 990V496H141ZM158 880L46 896L43 943Q87 963 138 977T243 996H285V925L158 880ZM51 488L55 539Q81 544 109 548T165 557L141 501V586H285V501L265 553L372 540L367 488H51ZM165 -5L793 990Q862
1001 939 995L311 0Q242 -11 165 -5ZM730 156L655 175L907 502H985L730 156ZM650 115L655 175L721 181H1132L1127 115H650ZM898 0V449L907 502H1039V0H898ZM841 0L846 51Q861 57 881 61T922 70L898 13V97H1039V13L1017 66L1098 52L1094 0H841Z" />
<glyph unicode="&#xbd;" horiz-adv-x="1184" d="M141 496V943L285 990V496H141ZM158 880L46 896L43 943Q87 963 138 977T243 996H285V925L158 880ZM51 488L55 539Q81 544 109 548T165 557L141 501V586H285V501L265 553L372 540L367 488H51ZM165 -5L793 990Q862
1001 939 995L311 0Q242 -11 165 -5ZM718 0L723 60L814 146Q880 209 916 247T966 315T980 375Q980 439 912 439Q862 439 818 410L739 324Q737 355 741 396T752 460Q834 510 949 510Q1040 510 1087 478T1135 379Q1135 338 1116 296T1048 200T910 72L825 0H718ZM718
0L812 65H1142L1141 0H718ZM1140 0L1035 48L1094 144H1154Q1156 112 1152 75T1140 0ZM739 324L752 444L881 449L806 324H739Z" />
<glyph unicode="&#xbe;" horiz-adv-x="1217" d="M226 480Q107 480 40 534Q24 586 27 670L105 586Q150 552 219 552Q292 552 292 626Q292 711 216 711H169L176 785L222 780Q331 780 389 743T448 636Q448 564 388 522T226 480ZM168 545L47 567L27 670H94L168 545ZM45
816L58 910L187 941L113 816H45ZM207 730L176 785H213Q276 785 276 853Q276 927 212 927Q164 927 118 898L45 816Q43 856 46 891T58 952Q97 974 149 986T249 998Q331 998 380 964T429 870Q429 806 369 768T207 730ZM236 -5L864 990Q933 1001 1010 995L382 0Q313
-11 236 -5ZM800 156L725 175L977 502H1055L800 156ZM720 115L725 175L791 181H1202L1197 115H720ZM968 0V449L977 502H1109V0H968ZM911 0L916 51Q931 57 951 61T992 70L968 13V97H1109V13L1087 66L1168 52L1164 0H911Z" />
<glyph unicode="&#xbf;" horiz-adv-x="695" d="M448 430L464 265L426 240Q330 177 295 129T260 12Q260 -131 389 -131Q478 -131 557 -73L663 88Q665 20 660 -43T642 -153Q578 -196 494 -220T323 -244Q184 -244 108 -183T31 -13Q31 50 61 107T161 224T351 359L372
372L329 321L339 430H448ZM663 88L640 -120L434 -161L561 88H663ZM392 778Q450 778 484 746T519 658Q519 602 485 570T392 537Q334 537 300 569T266 658Q266 713 300 745T392 778Z" />
<glyph unicode="&#xc0;" horiz-adv-x="1014" d="M616 996L937 81L883 107L1012 82L1005 0H602L608 84Q654 104 724 118L706 91L434 928L396 991Q443 996 500 997T616 996ZM523 990L224 81L207 110L333 82L326 0H9L16 80Q37 91 68 101T134 118L77 81L396 991L523
990ZM222 270L255 385H717L751 270H222ZM656 1071L279 1202L274 1245Q331 1305 427 1343L713 1139L656 1071Z" />
<glyph unicode="&#xc1;" horiz-adv-x="1014" d="M616 996L937 81L883 107L1012 82L1005 0H602L608 84Q654 104 724 118L706 91L434 928L396 991Q443 996 500 997T616 996ZM523 990L224 81L207 110L333 82L326 0H9L16 80Q37 91 68 101T134 118L77 81L396 991L523
990ZM222 270L255 385H717L751 270H222ZM350 1071L293 1139L589 1343Q685 1305 742 1245L737 1202L350 1071Z" />
<glyph unicode="&#xc2;" horiz-adv-x="1014" d="M616 996L937 81L883 107L1012 82L1005 0H602L608 84Q654 104 724 118L706 91L434 928L396 991Q443 996 500 997T616 996ZM523 990L224 81L207 110L333 82L326 0H9L16 80Q37 91 68 101T134 118L77 81L396 991L523
990ZM222 270L255 385H717L751 270H222ZM580 1346L817 1124L757 1055L448 1229L580 1346ZM580 1346L554 1230L255 1049L195 1114L428 1341Q463 1346 501 1347T580 1346Z" />
<glyph unicode="&#xc3;" horiz-adv-x="1014" d="M616 996L937 81L883 107L1012 82L1005 0H602L608 84Q654 104 724 118L706 91L434 928L396 991Q443 996 500 997T616 996ZM523 990L224 81L207 110L333 82L326 0H9L16 80Q37 91 68 101T134 118L77 81L396 991L523
990ZM222 270L255 385H717L751 270H222ZM280 1070L211 1115Q291 1306 424 1306Q479 1306 510 1283T565 1236T621 1212Q675 1212 736 1312L805 1268Q725 1076 592 1076Q537 1076 505 1099T450 1146T395 1170Q341 1170 280 1070Z" />
<glyph unicode="&#xc4;" horiz-adv-x="1014" d="M616 996L937 81L883 107L1012 82L1005 0H602L608 84Q654 104 724 118L706 91L434 928L396 991Q443 996 500 997T616 996ZM523 990L224 81L207 110L333 82L326 0H9L16 80Q37 91 68 101T134 118L77 81L396 991L523
990ZM222 270L255 385H717L751 270H222ZM337 1086Q285 1086 255 1116T224 1197Q224 1247 254 1277T337 1307Q389 1307 419 1277T450 1197Q450 1146 420 1116T337 1086ZM679 1086Q627 1086 597 1116T566 1197Q566 1247 596 1277T679 1307Q731 1307 761 1277T792
1197Q792 1146 762 1116T679 1086Z" />
<glyph unicode="&#xc5;" horiz-adv-x="1014" d="M616 996L937 81L883 107L1012 82L1005 0H602L608 84Q654 104 724 118L706 91L434 928L396 991Q443 996 500 997T616 996ZM523 990L224 81L207 110L333 82L326 0H9L16 80Q37 91 68 101T134 118L77 81L396 991L523
990ZM222 270L255 385H717L751 270H222ZM508 1062Q418 1062 365 1111T312 1246Q312 1331 365 1380T508 1430Q598 1430 651 1381T704 1246Q704 1161 651 1112T508 1062ZM515 1160Q588 1160 588 1238Q588 1281 565 1306T501 1332Q428 1332 428 1254Q428 1210 451
1185T515 1160Z" />
<glyph unicode="&#xc6;" horiz-adv-x="1385" d="M-11 0L-4 80Q17 91 48 101T114 118L51 79L564 990H704L211 77L201 110L327 82L320 0H-11ZM545 0L551 80Q600 101 677 119L645 26V177H859V26L830 111L963 82L956 0H545ZM252 289L295 406H738V289H252ZM731 0V120H1272L1296
0H731ZM645 15V976H859V15H645ZM1296 0L1113 73L1243 305H1340Q1342 242 1331 161T1296 0ZM740 446V570H1157L1148 446H740ZM534 880L373 908L380 990H604L534 880ZM679 870L571 874L624 990H1285L1266 870H679ZM1207 703L1110 913L1285 990Q1301 919 1305 845T1306
703H1207Z" />
<glyph unicode="&#xc7;" horiz-adv-x="970" d="M594 -17Q332 -17 192 110T51 474Q51 637 116 756T301 941T584 1007Q669 1007 750 990T883 942Q902 811 894 685H801L698 909L795 836Q688 891 567 891Q296 891 296 510Q296 99 611 99Q736 99 839 155L834 77L694
89L824 321H921Q923 190 888 49Q837 19 758 1T594 -17ZM434 -368L409 -288Q427 -287 441 -285T467 -281Q505 -274 527 -253T549 -204Q549 -170 512 -170Q494 -170 474 -176L438 -113L468 -100Q494 -90 520 -84T570 -78Q632 -78 669 -107T707 -186Q707 -250 646
-298T481 -363Q460 -366 434 -368ZM438 -113L480 60H591L519 -123L438 -113Z" />
<glyph unicode="&#xc8;" horiz-adv-x="924" d="M151 15V976H367V15H151ZM264 0V120H811L835 0H264ZM835 0L652 73L782 305H879Q881 242 870 161T835 0ZM248 445V571H696L687 445H248ZM206 870V990H824L805 870H206ZM746 703L649 913L824 990Q839 919 844 845T845
703H746ZM51 0L58 80Q107 101 183 119L151 26V177H367V26L338 111L471 82L465 0H51ZM467 990L461 910Q412 889 335 871L367 964V813H151V964L180 879L47 908L54 990H467ZM621 1071L244 1202L239 1245Q296 1305 392 1343L678 1139L621 1071Z" />
<glyph unicode="&#xc9;" horiz-adv-x="924" d="M151 15V976H367V15H151ZM264 0V120H811L835 0H264ZM835 0L652 73L782 305H879Q881 242 870 161T835 0ZM248 445V571H696L687 445H248ZM206 870V990H824L805 870H206ZM746 703L649 913L824 990Q839 919 844 845T845
703H746ZM51 0L58 80Q107 101 183 119L151 26V177H367V26L338 111L471 82L465 0H51ZM467 990L461 910Q412 889 335 871L367 964V813H151V964L180 879L47 908L54 990H467ZM315 1071L258 1139L554 1343Q650 1305 707 1245L702 1202L315 1071Z" />
<glyph unicode="&#xca;" horiz-adv-x="924" d="M151 15V976H367V15H151ZM264 0V120H811L835 0H264ZM835 0L652 73L782 305H879Q881 242 870 161T835 0ZM248 445V571H696L687 445H248ZM206 870V990H824L805 870H206ZM746 703L649 913L824 990Q839 919 844 845T845
703H746ZM51 0L58 80Q107 101 183 119L151 26V177H367V26L338 111L471 82L465 0H51ZM467 990L461 910Q412 889 335 871L367 964V813H151V964L180 879L47 908L54 990H467ZM545 1346L782 1124L722 1055L413 1229L545 1346ZM545 1346L519 1230L220 1049L160 1114L393
1341Q428 1346 466 1347T545 1346Z" />
<glyph unicode="&#xcb;" horiz-adv-x="924" d="M151 15V976H367V15H151ZM264 0V120H811L835 0H264ZM835 0L652 73L782 305H879Q881 242 870 161T835 0ZM248 445V571H696L687 445H248ZM206 870V990H824L805 870H206ZM746 703L649 913L824 990Q839 919 844 845T845
703H746ZM51 0L58 80Q107 101 183 119L151 26V177H367V26L338 111L471 82L465 0H51ZM467 990L461 910Q412 889 335 871L367 964V813H151V964L180 879L47 908L54 990H467ZM302 1086Q250 1086 220 1116T189 1197Q189 1247 219 1277T302 1307Q354 1307 384 1277T415
1197Q415 1146 385 1116T302 1086ZM644 1086Q592 1086 562 1116T531 1197Q531 1247 561 1277T644 1307Q696 1307 726 1277T757 1197Q757 1146 727 1116T644 1086Z" />
<glyph unicode="&#xcc;" horiz-adv-x="523" d="M153 15V976H369V15H153ZM53 0L60 80Q109 101 185 119L153 26V177H369V26L340 111L473 82L467 0H53ZM469 990L463 910Q414 889 337 871L369 964V813H153V964L182 879L49 908L56 990H469ZM409 1071L32 1202L27 1245Q84
1305 180 1343L466 1139L409 1071Z" />
<glyph unicode="&#xcd;" horiz-adv-x="523" d="M153 15V976H369V15H153ZM53 0L60 80Q109 101 185 119L153 26V177H369V26L340 111L473 82L467 0H53ZM469 990L463 910Q414 889 337 871L369 964V813H153V964L182 879L49 908L56 990H469ZM103 1071L46 1139L342 1343Q438
1305 495 1245L490 1202L103 1071Z" />
<glyph unicode="&#xce;" horiz-adv-x="523" d="M153 15V976H369V15H153ZM53 0L60 80Q109 101 185 119L153 26V177H369V26L340 111L473 82L467 0H53ZM469 990L463 910Q414 889 337 871L369 964V813H153V964L182 879L49 908L56 990H469ZM333 1346L570 1124L510 1055L201
1229L333 1346ZM333 1346L307 1230L8 1049L-52 1114L181 1341Q216 1346 254 1347T333 1346Z" />
<glyph unicode="&#xcf;" horiz-adv-x="523" d="M153 15V976H369V15H153ZM53 0L60 80Q109 101 185 119L153 26V177H369V26L340 111L473 82L467 0H53ZM469 990L463 910Q414 889 337 871L369 964V813H153V964L182 879L49 908L56 990H469ZM110 1086Q58 1086 28 1116T-3
1197Q-3 1247 27 1277T110 1307Q162 1307 192 1277T223 1197Q223 1146 193 1116T110 1086ZM412 1086Q360 1086 330 1116T299 1197Q299 1247 329 1277T412 1307Q464 1307 494 1277T525 1197Q525 1146 495 1116T412 1086Z" />
<glyph unicode="&#xd0;" horiz-adv-x="1055" d="M265 0V120H507Q631 120 697 217T763 495Q763 870 454 870H265V990H463Q726 990 867 866T1009 512Q1009 356 945 241T764 63T487 0H265ZM151 15V976H367V15H151ZM51 0L58 80Q107 101 183 119L151 26V177H367V26L338
111L471 82L465 0H51ZM467 990L461 910Q412 889 335 871L367 964V813H151V964L180 879L47 908L54 990H467ZM44 554H572V460H44V554Z" />
<glyph unicode="&#xd1;" horiz-adv-x="1087" d="M818 -6L162 834L294 990L950 148L959 -1Q899 -11 818 -6ZM153 15V976L301 917V15H153ZM296 818L180 861L47 908L54 990H294L296 818ZM959 -1L811 71V976H959V-1ZM53 0L59 80Q108 101 185 119L153 26V177H301V26L272
110L419 82L413 0H53ZM1053 990L1047 910Q993 886 927 871L959 964V813H811V964L840 879L707 908L713 990H1053ZM325 1070L256 1115Q336 1306 469 1306Q524 1306 555 1283T610 1236T666 1212Q720 1212 781 1312L850 1268Q770 1076 637 1076Q582 1076 550 1099T495
1146T440 1170Q386 1170 325 1070Z" />
<glyph unicode="&#xd2;" horiz-adv-x="1090" d="M544 -18Q393 -18 283 45T112 223T51 494Q51 651 111 766T283 945T545 1008Q696 1008 807 945T978 767T1039 496Q1039 339 979 224T807 45T544 -18ZM569 100Q794 100 794 457Q794 666 723 778T521 890Q296 890 296
533Q296 324 367 212T569 100ZM693 1071L316 1202L311 1245Q368 1305 464 1343L750 1139L693 1071Z" />
<glyph unicode="&#xd3;" horiz-adv-x="1090" d="M544 -18Q393 -18 283 45T112 223T51 494Q51 651 111 766T283 945T545 1008Q696 1008 807 945T978 767T1039 496Q1039 339 979 224T807 45T544 -18ZM569 100Q794 100 794 457Q794 666 723 778T521 890Q296 890 296
533Q296 324 367 212T569 100ZM387 1071L330 1139L626 1343Q722 1305 779 1245L774 1202L387 1071Z" />
<glyph unicode="&#xd4;" horiz-adv-x="1090" d="M544 -18Q393 -18 283 45T112 223T51 494Q51 651 111 766T283 945T545 1008Q696 1008 807 945T978 767T1039 496Q1039 339 979 224T807 45T544 -18ZM569 100Q794 100 794 457Q794 666 723 778T521 890Q296 890 296
533Q296 324 367 212T569 100ZM617 1346L854 1124L794 1055L485 1229L617 1346ZM617 1346L591 1230L292 1049L232 1114L465 1341Q500 1346 538 1347T617 1346Z" />
<glyph unicode="&#xd5;" horiz-adv-x="1090" d="M544 -18Q393 -18 283 45T112 223T51 494Q51 651 111 766T283 945T545 1008Q696 1008 807 945T978 767T1039 496Q1039 339 979 224T807 45T544 -18ZM569 100Q794 100 794 457Q794 666 723 778T521 890Q296 890 296
533Q296 324 367 212T569 100ZM317 1070L248 1115Q328 1306 461 1306Q516 1306 547 1283T602 1236T658 1212Q712 1212 773 1312L842 1268Q762 1076 629 1076Q574 1076 542 1099T487 1146T432 1170Q378 1170 317 1070Z" />
<glyph unicode="&#xd6;" horiz-adv-x="1090" d="M544 -18Q393 -18 283 45T112 223T51 494Q51 651 111 766T283 945T545 1008Q696 1008 807 945T978 767T1039 496Q1039 339 979 224T807 45T544 -18ZM569 100Q794 100 794 457Q794 666 723 778T521 890Q296 890 296
533Q296 324 367 212T569 100ZM374 1086Q322 1086 292 1116T261 1197Q261 1247 291 1277T374 1307Q426 1307 456 1277T487 1197Q487 1146 457 1116T374 1086ZM716 1086Q664 1086 634 1116T603 1197Q603 1247 633 1277T716 1307Q768 1307 798 1277T829 1197Q829
1146 799 1116T716 1086Z" />
<glyph unicode="&#xd7;" horiz-adv-x="798" d="M186 189L699 701L612 789L99 276L186 189ZM612 189L699 276L186 789L99 701L612 189Z" />
<glyph unicode="&#xd8;" horiz-adv-x="1090" d="M544 -18Q395 -18 284 45T112 224T51 494Q51 651 111 766T283 945T545 1008Q695 1008 806 945T978 766T1039 496Q1039 339 979 224T807 45T544 -18ZM569 100Q795 100 795 457Q795 667 725 778T521 890Q295 890 295
533Q295 323 365 212T569 100ZM174 -62L92 3L916 1052L998 987L174 -62Z" />
<glyph unicode="&#xd9;" horiz-adv-x="1043" d="M523 -17Q342 -17 235 66T127 289L347 317Q347 226 400 177T553 128Q652 128 706 177T760 317L919 289Q919 149 812 66T523 -17ZM127 289V976H347V317L127 289ZM127 813V964L156 878L33 908L40 990H461L455 910Q435
902 399 893T314 872L347 964V813H127ZM919 289L760 317V976H919V289ZM760 813V964L790 880L642 908L648 990H1009L1003 910Q963 890 888 870L919 964V813H760ZM692 1071L315 1202L310 1245Q367 1305 463 1343L749 1139L692 1071Z" />
<glyph unicode="&#xda;" horiz-adv-x="1043" d="M523 -17Q342 -17 235 66T127 289L347 317Q347 226 400 177T553 128Q652 128 706 177T760 317L919 289Q919 149 812 66T523 -17ZM127 289V976H347V317L127 289ZM127 813V964L156 878L33 908L40 990H461L455 910Q435
902 399 893T314 872L347 964V813H127ZM919 289L760 317V976H919V289ZM760 813V964L790 880L642 908L648 990H1009L1003 910Q963 890 888 870L919 964V813H760ZM386 1071L329 1139L625 1343Q721 1305 778 1245L773 1202L386 1071Z" />
<glyph unicode="&#xdb;" horiz-adv-x="1043" d="M523 -17Q342 -17 235 66T127 289L347 317Q347 226 400 177T553 128Q652 128 706 177T760 317L919 289Q919 149 812 66T523 -17ZM127 289V976H347V317L127 289ZM127 813V964L156 878L33 908L40 990H461L455 910Q435
902 399 893T314 872L347 964V813H127ZM919 289L760 317V976H919V289ZM760 813V964L790 880L642 908L648 990H1009L1003 910Q963 890 888 870L919 964V813H760ZM616 1346L853 1124L793 1055L484 1229L616 1346ZM616 1346L590 1230L291 1049L231 1114L464 1341Q499
1346 537 1347T616 1346Z" />
<glyph unicode="&#xdc;" horiz-adv-x="1043" d="M523 -17Q342 -17 235 66T127 289L347 317Q347 226 400 177T553 128Q652 128 706 177T760 317L919 289Q919 149 812 66T523 -17ZM127 289V976H347V317L127 289ZM127 813V964L156 878L33 908L40 990H461L455 910Q435
902 399 893T314 872L347 964V813H127ZM919 289L760 317V976H919V289ZM760 813V964L790 880L642 908L648 990H1009L1003 910Q963 890 888 870L919 964V813H760ZM373 1086Q321 1086 291 1116T260 1197Q260 1247 290 1277T373 1307Q425 1307 455 1277T486 1197Q486
1146 456 1116T373 1086ZM715 1086Q663 1086 633 1116T602 1197Q602 1247 632 1277T715 1307Q767 1307 797 1277T828 1197Q828 1146 798 1116T715 1086Z" />
<glyph unicode="&#xdd;" horiz-adv-x="946" d="M368 341L74 909L131 883L2 908L9 990H422L416 908Q373 889 289 874L304 899L549 410L580 346L368 341ZM450 347L725 909L741 880L603 908L610 990H937L930 910Q909 899 878 889T812 872L873 909L580 346L450 347ZM366
15V411H582V15H366ZM250 0L256 80Q286 92 322 101T398 117L366 26V177H582V26L552 110L702 82L696 0H250ZM337 1071L280 1139L576 1343Q672 1305 729 1245L724 1202L337 1071Z" />
<glyph unicode="&#xde;" horiz-adv-x="894" d="M448 188Q348 188 234 200L249 314Q361 302 466 302Q646 302 646 497Q646 688 474 688H231V808H483Q677 808 781 733T886 519Q886 367 768 278T448 188ZM51 0L58 80Q81 92 111 102T173 119L141 26V177H354V26L323
110L479 82L473 0H51ZM141 15V976H354V15H141ZM141 813V964L170 879L47 908L54 990H475L469 910Q409 889 319 873L354 964V799L141 813Z" />
<glyph unicode="&#xdf;" horiz-adv-x="969" d="M608 -16Q501 -16 419 20Q409 65 406 119T405 227H497L586 55L483 126Q551 91 624 91Q731 91 731 184Q731 237 703 269T634 327T551 380T481 453T453 569Q453 633 474 670T524 736T573 801T595 901Q595 1024 488
1024Q410 1024 368 964T326 792V6H118V712Q118 907 225 1022T516 1138Q644 1138 720 1081T796 927Q796 869 773 830T718 762T664 702T640 629Q640 585 668 557T739 505T822 451T893 371T922 243Q922 118 841 51T608 -16ZM28 0L35 76Q63 90 91 99T149 115L118 25V175H326V0H28Z"
/>
<glyph unicode="&#xe0;" horiz-adv-x="796" d="M463 108Q463 191 465 277T467 440V527Q467 669 338 669Q255 669 178 611L89 523Q86 620 100 700Q244 780 414 780Q673 780 673 556Q673 527 672 470T670 345T668 220T667 132L463 108ZM89 523L100 638L281 695L192
523H89ZM261 -15Q160 -15 100 42T40 195Q40 399 342 462L517 499L533 399L390 381Q317 373 285 340T252 243Q252 117 354 117Q426 117 531 192L549 143Q424 -15 261 -15ZM516 -4L473 135L667 183V61L635 118L755 83L748 8Q661 -6 516 -4ZM459 833L166 1079L161
1123Q244 1164 347 1167L536 877L459 833Z" />
<glyph unicode="&#xe1;" horiz-adv-x="796" d="M463 108Q463 191 465 277T467 440V527Q467 669 338 669Q255 669 178 611L89 523Q86 620 100 700Q244 780 414 780Q673 780 673 556Q673 527 672 470T670 345T668 220T667 132L463 108ZM89 523L100 638L281 695L192
523H89ZM261 -15Q160 -15 100 42T40 195Q40 399 342 462L517 499L533 399L390 381Q317 373 285 340T252 243Q252 117 354 117Q426 117 531 192L549 143Q424 -15 261 -15ZM516 -4L473 135L667 183V61L635 118L755 83L748 8Q661 -6 516 -4ZM291 833L214 877L413 1167Q516
1164 599 1123L594 1079L291 833Z" />
<glyph unicode="&#xe2;" horiz-adv-x="796" d="M463 108Q463 191 465 277T467 440V527Q467 669 338 669Q255 669 178 611L89 523Q86 620 100 700Q244 780 414 780Q673 780 673 556Q673 527 672 470T670 345T668 220T667 132L463 108ZM89 523L100 638L281 695L192
523H89ZM261 -15Q160 -15 100 42T40 195Q40 399 342 462L517 499L533 399L390 381Q317 373 285 340T252 243Q252 117 354 117Q426 117 531 192L549 143Q424 -15 261 -15ZM516 -4L473 135L667 183V61L635 118L755 83L748 8Q661 -6 516 -4ZM438 1153L634 893L566
837L292 1064L438 1153ZM438 1153L432 1064L169 831L102 884L294 1148Q329 1153 363 1154T438 1153Z" />
<glyph unicode="&#xe3;" horiz-adv-x="796" d="M463 108Q463 191 465 277T467 440V527Q467 669 338 669Q255 669 178 611L89 523Q86 620 100 700Q244 780 414 780Q673 780 673 556Q673 527 672 470T670 345T668 220T667 132L463 108ZM89 523L100 638L281 695L192
523H89ZM261 -15Q160 -15 100 42T40 195Q40 399 342 462L517 499L533 399L390 381Q317 373 285 340T252 243Q252 117 354 117Q426 117 531 192L549 143Q424 -15 261 -15ZM516 -4L473 135L667 183V61L635 118L755 83L748 8Q661 -6 516 -4ZM142 856L73 901Q153 1092
286 1092Q341 1092 372 1069T427 1022T483 998Q537 998 598 1098L667 1054Q587 862 454 862Q399 862 367 885T312 932T257 956Q203 956 142 856Z" />
<glyph unicode="&#xe4;" horiz-adv-x="796" d="M463 108Q463 191 465 277T467 440V527Q467 669 338 669Q255 669 178 611L89 523Q86 620 100 700Q244 780 414 780Q673 780 673 556Q673 527 672 470T670 345T668 220T667 132L463 108ZM89 523L100 638L281 695L192
523H89ZM261 -15Q160 -15 100 42T40 195Q40 399 342 462L517 499L533 399L390 381Q317 373 285 340T252 243Q252 117 354 117Q426 117 531 192L549 143Q424 -15 261 -15ZM516 -4L473 135L667 183V61L635 118L755 83L748 8Q661 -6 516 -4ZM209 872Q157 872 127 902T96
983Q96 1033 126 1063T209 1093Q261 1093 291 1063T322 983Q322 932 292 902T209 872ZM531 872Q479 872 449 902T418 983Q418 1033 448 1063T531 1093Q583 1093 613 1063T644 983Q644 932 614 902T531 872Z" />
<glyph unicode="&#xe5;" horiz-adv-x="796" d="M463 108Q463 191 465 277T467 440V527Q467 669 338 669Q255 669 178 611L89 523Q86 620 100 700Q244 780 414 780Q673 780 673 556Q673 527 672 470T670 345T668 220T667 132L463 108ZM89 523L100 638L281 695L192
523H89ZM261 -15Q160 -15 100 42T40 195Q40 399 342 462L517 499L533 399L390 381Q317 373 285 340T252 243Q252 117 354 117Q426 117 531 192L549 143Q424 -15 261 -15ZM516 -4L473 135L667 183V61L635 118L755 83L748 8Q661 -6 516 -4ZM370 845Q280 845 227 894T174
1029Q174 1114 227 1163T370 1213Q460 1213 513 1164T566 1029Q566 944 513 895T370 845ZM377 943Q450 943 450 1021Q450 1064 427 1089T363 1115Q290 1115 290 1037Q290 993 313 968T377 943Z" />
<glyph unicode="&#xe6;" horiz-adv-x="1173" d="M831 -16Q645 -16 546 77T447 345Q447 477 494 570L527 597Q562 686 634 733T809 781Q963 781 1046 688T1129 419Q1129 405 1129 390T1127 365L913 392Q913 539 883 604T785 670Q656 670 656 442Q656 126 906 126Q997
126 1106 167L1097 51Q1047 19 977 2T831 -16ZM451 332V440V527Q451 669 329 669Q254 669 177 611L89 523Q86 620 100 700Q169 739 248 759T406 780Q516 780 569 726T623 556V348L451 332ZM89 523L100 638L279 695L190 523H89ZM252 -15Q155 -15 98 42T40 195Q40
301 113 366T322 450L501 476L515 380L381 372Q312 368 281 338T250 243Q250 116 346 116Q421 116 520 199L569 147Q422 -15 252 -15ZM553 361V454L1111 458L1127 365L553 361Z" />
<glyph unicode="&#xe7;" horiz-adv-x="737" d="M437 -16Q247 -16 146 83T45 366Q45 557 150 669T433 781Q564 781 669 722Q679 677 683 624T683 517H583L495 689L575 619Q535 642 495 655T422 668Q351 668 313 604T274 417Q274 127 512 127Q608 127 707 164L698
47Q595 -16 437 -16ZM289 -368L265 -290Q282 -289 296 -287T321 -283Q358 -276 380 -255T402 -204Q402 -168 365 -168Q347 -168 327 -174L292 -113L321 -100Q347 -90 373 -84T423 -78Q484 -78 521 -107T558 -186Q558 -250 497 -298T334 -363Q313 -366 289 -368ZM351
-121L306 -55L364 60L419 -1L351 -121Z" />
<glyph unicode="&#xe8;" horiz-adv-x="800" d="M450 -16Q255 -16 150 84T45 371Q45 559 148 670T428 781Q586 781 671 688T757 419Q757 404 756 384T753 349L538 392Q538 539 507 604T405 669Q269 669 269 440Q269 127 525 127Q625 127 734 168L725 51Q676 19
604 2T450 -16ZM138 349V444H737L753 349H138ZM497 833L204 1079L199 1123Q282 1164 385 1167L574 877L497 833Z" />
<glyph unicode="&#xe9;" horiz-adv-x="800" d="M450 -16Q255 -16 150 84T45 371Q45 559 148 670T428 781Q586 781 671 688T757 419Q757 404 756 384T753 349L538 392Q538 539 507 604T405 669Q269 669 269 440Q269 127 525 127Q625 127 734 168L725 51Q676 19
604 2T450 -16ZM138 349V444H737L753 349H138ZM329 833L252 877L451 1167Q554 1164 637 1123L632 1079L329 833Z" />
<glyph unicode="&#xea;" horiz-adv-x="800" d="M450 -16Q255 -16 150 84T45 371Q45 559 148 670T428 781Q586 781 671 688T757 419Q757 404 756 384T753 349L538 392Q538 539 507 604T405 669Q269 669 269 440Q269 127 525 127Q625 127 734 168L725 51Q676 19
604 2T450 -16ZM138 349V444H737L753 349H138ZM476 1153L672 893L604 837L330 1064L476 1153ZM476 1153L470 1064L207 831L140 884L332 1148Q367 1153 401 1154T476 1153Z" />
<glyph unicode="&#xeb;" horiz-adv-x="800" d="M450 -16Q255 -16 150 84T45 371Q45 559 148 670T428 781Q586 781 671 688T757 419Q757 404 756 384T753 349L538 392Q538 539 507 604T405 669Q269 669 269 440Q269 127 525 127Q625 127 734 168L725 51Q676 19
604 2T450 -16ZM138 349V444H737L753 349H138ZM247 872Q195 872 165 902T134 983Q134 1033 164 1063T247 1093Q299 1093 329 1063T360 983Q360 932 330 902T247 872ZM569 872Q517 872 487 902T456 983Q456 1033 486 1063T569 1093Q621 1093 651 1063T682 983Q682
932 652 902T569 872Z" />
<glyph unicode="&#xec;" horiz-adv-x="491" d="M147 6V692L355 711V6H147ZM147 513V641L182 581L44 654L49 713Q100 735 164 750T298 772H355V613L147 513ZM51 0L58 76Q83 88 113 97T179 115L147 25V175H355V25L326 107L455 78L449 0H51ZM321 833L28 1079L23 1123Q106
1164 209 1167L398 877L321 833Z" />
<glyph unicode="&#xed;" horiz-adv-x="491" d="M147 6V692L355 711V6H147ZM147 513V641L182 581L44 654L49 713Q100 735 164 750T298 772H355V613L147 513ZM51 0L58 76Q83 88 113 97T179 115L147 25V175H355V25L326 107L455 78L449 0H51ZM153 833L76 877L275 1167Q378
1164 461 1123L456 1079L153 833Z" />
<glyph unicode="&#xee;" horiz-adv-x="491" d="M147 6V692L355 711V6H147ZM147 513V641L182 581L44 654L49 713Q100 735 164 750T298 772H355V613L147 513ZM51 0L58 76Q83 88 113 97T179 115L147 25V175H355V25L326 107L455 78L449 0H51ZM300 1153L496 893L428
837L154 1064L300 1153ZM300 1153L294 1064L31 831L-36 884L156 1148Q191 1153 225 1154T300 1153Z" />
<glyph unicode="&#xef;" horiz-adv-x="491" d="M147 6V692L355 711V6H147ZM147 513V641L182 581L44 654L49 713Q100 735 164 750T298 772H355V613L147 513ZM51 0L58 76Q83 88 113 97T179 115L147 25V175H355V25L326 107L455 78L449 0H51ZM91 872Q39 872 9 902T-22
983Q-22 1033 8 1063T91 1093Q143 1093 173 1063T204 983Q204 932 174 902T91 872ZM373 872Q321 872 291 902T260 983Q260 1033 290 1063T373 1093Q425 1093 455 1063T486 983Q486 932 456 902T373 872Z" />
<glyph unicode="&#xf0;" horiz-adv-x="881" d="M475 1056Q651 953 739 799T827 441Q827 220 726 101T435 -18Q256 -18 151 87T45 370Q45 549 144 654T414 759Q607 759 645 555L603 512Q539 647 420 647Q274 647 274 398Q274 253 320 175T451 96Q529 96 563 170T597
412Q597 457 595 499T587 578L602 611Q571 747 506 841T346 990Q309 1012 264 1028T168 1058L228 1151Q289 1139 354 1114T475 1056ZM206 801L166 883L418 1027L494 967L206 801ZM496 966L420 1026L626 1144L664 1062L496 966Z" />
<glyph unicode="&#xf1;" horiz-adv-x="946" d="M609 6V507Q609 644 486 644Q390 644 284 560L264 624Q326 701 410 740T586 780Q698 780 757 723T817 558V6H609ZM143 6V678L351 636V6H143ZM53 0L60 76Q88 90 116 99T174 115L143 25V175H351V25L324 106L451 78L444
0H53ZM531 0L538 80Q559 90 585 99T640 114L609 25V175H817V25L789 107L911 78L904 0H531ZM143 513V641L178 581L40 654L45 713Q96 735 160 750T294 772L344 600L143 513ZM236 856L167 901Q247 1092 380 1092Q435 1092 466 1069T521 1022T577 998Q631 998 692 1098L761
1054Q681 862 548 862Q493 862 461 885T406 932T351 956Q297 956 236 856Z" />
<glyph unicode="&#xf2;" horiz-adv-x="871" d="M435 -18Q256 -18 151 89T45 380Q45 564 151 672T437 781Q616 781 721 673T827 383Q827 199 721 91T435 -18ZM451 96Q597 96 597 355Q597 506 551 586T420 667Q274 667 274 408Q274 257 320 177T451 96ZM525 833L232
1079L227 1123Q310 1164 413 1167L602 877L525 833Z" />
<glyph unicode="&#xf3;" horiz-adv-x="871" d="M435 -18Q256 -18 151 89T45 380Q45 564 151 672T437 781Q616 781 721 673T827 383Q827 199 721 91T435 -18ZM451 96Q597 96 597 355Q597 506 551 586T420 667Q274 667 274 408Q274 257 320 177T451 96ZM357 833L280
877L479 1167Q582 1164 665 1123L660 1079L357 833Z" />
<glyph unicode="&#xf4;" horiz-adv-x="871" d="M435 -18Q256 -18 151 89T45 380Q45 564 151 672T437 781Q616 781 721 673T827 383Q827 199 721 91T435 -18ZM451 96Q597 96 597 355Q597 506 551 586T420 667Q274 667 274 408Q274 257 320 177T451 96ZM504 1153L700
893L632 837L358 1064L504 1153ZM504 1153L498 1064L235 831L168 884L360 1148Q395 1153 429 1154T504 1153Z" />
<glyph unicode="&#xf5;" horiz-adv-x="871" d="M435 -18Q256 -18 151 89T45 380Q45 564 151 672T437 781Q616 781 721 673T827 383Q827 199 721 91T435 -18ZM451 96Q597 96 597 355Q597 506 551 586T420 667Q274 667 274 408Q274 257 320 177T451 96ZM208 856L139
901Q219 1092 352 1092Q407 1092 438 1069T493 1022T549 998Q603 998 664 1098L733 1054Q653 862 520 862Q465 862 433 885T378 932T323 956Q269 956 208 856Z" />
<glyph unicode="&#xf6;" horiz-adv-x="871" d="M435 -18Q256 -18 151 89T45 380Q45 564 151 672T437 781Q616 781 721 673T827 383Q827 199 721 91T435 -18ZM451 96Q597 96 597 355Q597 506 551 586T420 667Q274 667 274 408Q274 257 320 177T451 96ZM275 872Q223
872 193 902T162 983Q162 1033 192 1063T275 1093Q327 1093 357 1063T388 983Q388 932 358 902T275 872ZM597 872Q545 872 515 902T484 983Q484 1033 514 1063T597 1093Q649 1093 679 1063T710 983Q710 932 680 902T597 872Z" />
<glyph unicode="&#xf7;" horiz-adv-x="798" d="M77 427V550H721V427H77ZM399 643Q357 643 333 668T308 735Q308 777 332 802T399 827Q441 827 465 802T490 735Q490 693 466 668T399 643ZM399 150Q357 150 333 175T308 242Q308 284 332 309T399 334Q441 334 465
309T490 242Q490 201 466 176T399 150Z" />
<glyph unicode="&#xf8;" horiz-adv-x="871" d="M435 -18Q319 -18 231 32T94 171T45 380Q45 564 151 672T438 781Q554 781 641 731T778 592T827 383Q827 199 721 91T435 -18ZM451 93Q602 93 602 355Q602 509 557 589T420 670Q269 670 269 408Q269 254 315 174T451
93ZM142 -62L72 -2L203 163L219 179L729 825L799 765L668 600L653 584L142 -62Z" />
<glyph unicode="&#xf9;" horiz-adv-x="894" d="M337 -17Q97 -17 97 217V670L305 659V249Q305 179 330 148T411 117Q520 117 631 206L650 141Q516 -17 337 -17ZM97 528V647L132 604L13 668L19 735Q114 769 248 772H305V612L97 528ZM764 59L556 99V668L764 658V59ZM556
528V647L591 603L463 671L468 732Q518 750 580 760T707 772H764V612L556 528ZM614 -4L570 135L764 183V61L733 118L852 83L846 8Q759 -6 614 -4ZM510 833L217 1079L212 1123Q295 1164 398 1167L587 877L510 833Z" />
<glyph unicode="&#xfa;" horiz-adv-x="894" d="M337 -17Q97 -17 97 217V670L305 659V249Q305 179 330 148T411 117Q520 117 631 206L650 141Q516 -17 337 -17ZM97 528V647L132 604L13 668L19 735Q114 769 248 772H305V612L97 528ZM764 59L556 99V668L764 658V59ZM556
528V647L591 603L463 671L468 732Q518 750 580 760T707 772H764V612L556 528ZM614 -4L570 135L764 183V61L733 118L852 83L846 8Q759 -6 614 -4ZM342 833L265 877L464 1167Q567 1164 650 1123L645 1079L342 833Z" />
<glyph unicode="&#xfb;" horiz-adv-x="894" d="M337 -17Q97 -17 97 217V670L305 659V249Q305 179 330 148T411 117Q520 117 631 206L650 141Q516 -17 337 -17ZM97 528V647L132 604L13 668L19 735Q114 769 248 772H305V612L97 528ZM764 59L556 99V668L764 658V59ZM556
528V647L591 603L463 671L468 732Q518 750 580 760T707 772H764V612L556 528ZM614 -4L570 135L764 183V61L733 118L852 83L846 8Q759 -6 614 -4ZM489 1153L685 893L617 837L343 1064L489 1153ZM489 1153L483 1064L220 831L153 884L345 1148Q380 1153 414 1154T489
1153Z" />
<glyph unicode="&#xfc;" horiz-adv-x="894" d="M337 -17Q97 -17 97 217V670L305 659V249Q305 179 330 148T411 117Q520 117 631 206L650 141Q516 -17 337 -17ZM97 528V647L132 604L13 668L19 735Q114 769 248 772H305V612L97 528ZM764 59L556 99V668L764 658V59ZM556
528V647L591 603L463 671L468 732Q518 750 580 760T707 772H764V612L556 528ZM614 -4L570 135L764 183V61L733 118L852 83L846 8Q759 -6 614 -4ZM260 872Q208 872 178 902T147 983Q147 1033 177 1063T260 1093Q312 1093 342 1063T373 983Q373 932 343 902T260 872ZM582
872Q530 872 500 902T469 983Q469 1033 499 1063T582 1093Q634 1093 664 1063T695 983Q695 932 665 902T582 872Z" />
<glyph unicode="&#xfd;" horiz-adv-x="843" d="M378 -356Q268 -343 186 -300L379 22L413 48L642 679L659 653L544 681L550 763H837L831 683Q811 669 783 660T726 644L783 678L378 -356ZM354 -77L65 680L127 653L0 681L7 763H384L378 681Q356 671 328 662T271 646L290
671L496 62L480 -1L354 -77ZM370 833L293 877L492 1167Q595 1164 678 1123L673 1079L370 833Z" />
<glyph unicode="&#xfe;" horiz-adv-x="869" d="M434 -18Q278 -18 205 76L237 171Q326 96 422 96Q510 96 557 167T605 371Q605 503 558 574T424 645Q339 645 245 570L226 627Q357 781 520 781Q662 781 746 680T830 407Q830 212 723 97T434 -18ZM15 -320L22 -244Q50
-230 78 -221T136 -205L105 -295V-145H313V-295L286 -215L453 -242L446 -320H15ZM105 -309V1072L313 1031V-309H105ZM105 898V1023L132 961L-3 1021L3 1078Q105 1115 236 1120H313V948L105 898Z" />
<glyph unicode="&#xff;" horiz-adv-x="843" d="M378 -356Q268 -343 186 -300L379 22L413 48L642 679L659 653L544 681L550 763H837L831 683Q811 669 783 660T726 644L783 678L378 -356ZM354 -77L65 680L127 653L0 681L7 763H384L378 681Q356 671 328 662T271 646L290
671L496 62L480 -1L354 -77ZM288 872Q236 872 206 902T175 983Q175 1033 205 1063T288 1093Q340 1093 370 1063T401 983Q401 932 371 902T288 872ZM610 872Q558 872 528 902T497 983Q497 1033 527 1063T610 1093Q662 1093 692 1063T723 983Q723 932 693 902T610
872Z" />
<glyph unicode="&#x2013;" horiz-adv-x="908" d="M77 409V548H831V409H77Z" />
<glyph unicode="&#x2014;" horiz-adv-x="1248" d="M77 409V548H1171V409H77Z" />
<glyph unicode="&#x2018;" horiz-adv-x="362" d="M286 1178L331 1122Q290 1100 260 1075T211 1021Q191 992 185 962T178 896L128 933H301Q309 820 282 747Q240 733 192 733Q57 733 57 875Q57 970 120 1053T286 1178Z" />
<glyph unicode="&#x2019;" horiz-adv-x="362" d="M76 713L31 769Q72 791 102 816T151 870Q171 899 177 929T184 995L234 958H61Q53 1071 80 1144Q122 1158 170 1158Q305 1158 305 1016Q305 921 242 838T76 713Z" />
<glyph unicode="&#x201a;" horiz-adv-x="403" d="M87 -231L42 -175Q83 -153 113 -128T162 -74Q182 -45 188 -15T195 51L245 14H72Q64 127 91 200Q133 214 181 214Q316 214 316 72Q316 -23 253 -106T87 -231Z" />
<glyph unicode="&#x201c;" horiz-adv-x="662" d="M586 1178L631 1122Q590 1100 560 1075T511 1021Q491 992 485 962T478 896L428 933H601Q609 820 582 747Q540 733 492 733Q357 733 357 875Q357 970 420 1053T586 1178ZM286 1178L331 1122Q290 1100 260 1075T211
1021Q191 992 185 962T178 896L128 933H301Q309 820 282 747Q240 733 192 733Q57 733 57 875Q57 970 120 1053T286 1178Z" />
<glyph unicode="&#x201d;" horiz-adv-x="662" d="M76 713L31 769Q72 791 102 816T151 870Q171 899 177 929T184 995L234 958H61Q53 1071 80 1144Q122 1158 170 1158Q305 1158 305 1016Q305 921 242 838T76 713ZM376 713L331 769Q372 791 402 816T451 870Q471 899
477 929T484 995L534 958H361Q353 1071 380 1144Q422 1158 470 1158Q605 1158 605 1016Q605 921 542 838T376 713Z" />
<glyph unicode="&#x201e;" horiz-adv-x="703" d="M87 -231L42 -175Q83 -153 113 -128T162 -74Q182 -45 188 -15T195 51L245 14H72Q64 127 91 200Q133 214 181 214Q316 214 316 72Q316 -23 253 -106T87 -231ZM387 -231L342 -175Q383 -153 413 -128T462 -74Q482
-45 488 -15T495 51L545 14H372Q364 127 391 200Q433 214 481 214Q616 214 616 72Q616 -23 553 -106T387 -231Z" />
<glyph unicode="&#x2022;" horiz-adv-x="623" d="M312 287Q225 287 174 339T123 481Q123 570 174 622T312 675Q399 675 450 623T501 481Q501 392 450 340T312 287Z" />
<glyph unicode="&#x2039;" horiz-adv-x="509" d="M212 365L55 373Q54 392 55 410T61 443L375 756L451 696L212 365ZM375 54L55 373L212 446L451 114L375 54Z" />
<glyph unicode="&#x203a;" horiz-adv-x="509" d="M297 445L454 437Q455 418 454 400T448 367L134 54L58 114L297 445ZM134 756L454 437L297 364L58 696L134 756Z" />
</font>
</defs>
</svg>
